<svg width="31" height="30" viewBox="0 0 31 30" fill="none" xmlns="http://www.w3.org/2000/svg">
<path d="M0 2.11761C0 0.947934 1.00908 0 2.25412 0H28.4403C29.6854 0 30.6944 0.947934 30.6944 2.11761V27.4476C30.6944 28.6173 29.6854 29.5652 28.4403 29.5652H2.25412C1.00908 29.5652 0 28.6173 0 27.4476V2.11761ZM9.48266 24.7498V11.3992H4.87658V24.7498H9.48266ZM7.18058 9.57543C8.78628 9.57543 9.78577 8.55173 9.78577 7.26934C9.757 5.95923 8.7882 4.96326 7.21128 4.96326C5.63435 4.96326 4.60417 5.96108 4.60417 7.26934C4.60417 8.55173 5.60365 9.57543 7.14989 9.57543H7.18058V9.57543ZM16.5961 24.7498V17.2938C16.5961 16.8947 16.6268 16.4955 16.7496 16.211C17.0815 15.4146 17.8392 14.5886 19.113 14.5886C20.7801 14.5886 21.4458 15.8118 21.4458 17.6079V24.7498H26.0519V17.0924C26.0519 12.9902 23.7805 11.0833 20.7494 11.0833C18.3054 11.0833 17.21 12.3767 16.5961 13.2877V13.3339H16.5654C16.5756 13.3185 16.5858 13.3031 16.5961 13.2877V11.3992H11.9919C12.0495 12.6521 11.9919 24.7498 11.9919 24.7498H16.5961Z" fill="#8B3DBB"/>
</svg>
