<svg width="31" height="30" viewBox="0 0 31 30" fill="none" xmlns="http://www.w3.org/2000/svg">
<path d="M15.3472 0C11.1824 0 10.6586 0.0184782 9.02225 0.0886956C7.38585 0.162609 6.27126 0.410217 5.29479 0.776086C4.27054 1.14716 3.3428 1.72924 2.57642 2.48163C1.79577 3.2202 1.19153 4.1137 0.805729 5.1C0.425885 6.03869 0.166901 7.11412 0.0920833 8.68477C0.019184 10.2647 0 10.7673 0 14.7844C0 18.7979 0.019184 19.3005 0.0920833 20.8767C0.168819 22.4511 0.425885 23.5247 0.805729 24.4652C1.199 25.4371 1.72273 26.2613 2.57642 27.0836C3.42819 27.9058 4.28379 28.4121 5.29287 28.7891C6.27126 29.155 7.38393 29.4044 9.01841 29.4765C10.6567 29.5467 11.1785 29.5652 15.3472 29.5652C19.5159 29.5652 20.0358 29.5467 21.6741 29.4765C23.3067 29.4026 24.4251 29.155 25.4016 28.7891C26.4252 28.4178 27.3522 27.8358 28.118 27.0836C28.9717 26.2613 29.4954 25.4371 29.8887 24.4652C30.2666 23.5247 30.5256 22.4511 30.6024 20.8767C30.6753 19.3005 30.6944 18.7979 30.6944 14.7826C30.6944 10.7673 30.6753 10.2647 30.6024 8.68662C30.5256 7.11412 30.2666 6.03869 29.8887 5.1C29.503 4.11367 28.8987 3.22016 28.118 2.48163C27.3519 1.72896 26.4241 1.14684 25.3997 0.776086C24.4213 0.410217 23.3048 0.160761 21.6722 0.0886956C20.0339 0.0184782 19.514 0 15.3434 0H15.3491H15.3472ZM13.9717 2.66456H15.3491C19.4468 2.66456 19.9322 2.6775 21.5494 2.74956C23.0458 2.81424 23.8592 3.0563 24.4002 3.25771C25.1157 3.52565 25.6279 3.84717 26.1651 4.36456C26.7022 4.88195 27.0341 5.37347 27.3123 6.06456C27.5233 6.5838 27.7727 7.36728 27.8399 8.80858C27.9147 10.3663 27.93 10.8338 27.93 14.7789C27.93 18.724 27.9147 19.1934 27.8399 20.7511C27.7727 22.1924 27.5214 22.974 27.3123 23.4951C27.0663 24.1369 26.6735 24.7173 26.1632 25.1932C25.626 25.7106 25.1157 26.0303 24.3982 26.2982C23.8611 26.5015 23.0477 26.7417 21.5494 26.8082C19.9322 26.8785 19.4468 26.8951 15.3491 26.8951C11.2514 26.8951 10.7642 26.8785 9.14694 26.8082C7.65059 26.7417 6.83911 26.5015 6.29812 26.2982C5.63147 26.0616 5.02838 25.684 4.53319 25.1932C4.02241 24.7166 3.62909 24.1356 3.38214 23.4932C3.17304 22.974 2.92173 22.1905 2.85458 20.7492C2.78168 19.1915 2.76634 18.724 2.76634 14.7752C2.76634 10.8283 2.78168 10.3626 2.85458 8.80488C2.92365 7.36358 3.17304 6.5801 3.38406 6.05902C3.66223 5.36978 3.99603 4.87641 4.53319 4.35902C5.07034 3.84163 5.58063 3.52195 6.29812 3.25402C6.83911 3.05076 7.65059 2.81054 9.14694 2.74402C10.5627 2.68119 11.1114 2.66271 13.9717 2.66087V2.66456V2.66456ZM23.5407 5.11847C23.2989 5.11847 23.0594 5.16436 22.8359 5.2535C22.6125 5.34265 22.4095 5.47332 22.2385 5.63804C22.0675 5.80276 21.9318 5.99832 21.8392 6.21354C21.7467 6.42876 21.6991 6.65943 21.6991 6.89238C21.6991 7.12534 21.7467 7.35601 21.8392 7.57123C21.9318 7.78645 22.0675 7.98201 22.2385 8.14673C22.4095 8.31145 22.6125 8.44212 22.8359 8.53127C23.0594 8.62041 23.2989 8.6663 23.5407 8.6663C24.0292 8.6663 24.4976 8.4794 24.843 8.14673C25.1884 7.81406 25.3824 7.36286 25.3824 6.89238C25.3824 6.42191 25.1884 5.97071 24.843 5.63804C24.4976 5.30537 24.0292 5.11847 23.5407 5.11847V5.11847ZM15.3491 7.19173C14.3037 7.17602 13.2656 7.36078 12.295 7.73525C11.3245 8.10972 10.4409 8.66643 9.6959 9.37295C8.95086 10.0795 8.35918 10.9217 7.95531 11.8506C7.55144 12.7795 7.34345 13.7765 7.34345 14.7835C7.34345 15.7906 7.55144 16.7876 7.95531 17.7165C8.35918 18.6453 8.95086 19.4876 9.6959 20.1941C10.4409 20.9006 11.3245 21.4573 12.295 21.8318C13.2656 22.2063 14.3037 22.391 15.3491 22.3753C17.4182 22.3442 19.3916 21.5307 20.8434 20.1103C22.2952 18.69 23.1089 16.7767 23.1089 14.7835C23.1089 12.7903 22.2952 10.8771 20.8434 9.4567C19.3916 8.03635 17.4182 7.22283 15.3491 7.19173V7.19173ZM15.3491 9.85445C16.7061 9.85445 18.0075 10.3737 18.967 11.2979C19.9265 12.2221 20.4655 13.4756 20.4655 14.7826C20.4655 16.0896 19.9265 17.3431 18.967 18.2673C18.0075 19.1915 16.7061 19.7107 15.3491 19.7107C13.9922 19.7107 12.6908 19.1915 11.7313 18.2673C10.7718 17.3431 10.2328 16.0896 10.2328 14.7826C10.2328 13.4756 10.7718 12.2221 11.7313 11.2979C12.6908 10.3737 13.9922 9.85445 15.3491 9.85445V9.85445Z" fill="#8B3DBB"/>
</svg>
