<svg width="31" height="30" viewBox="0 0 31 30" fill="none" xmlns="http://www.w3.org/2000/svg">
<path d="M9.64189 29.5652C21.2252 29.5652 27.5617 18.1877 27.5617 8.33851C27.5617 8.02014 27.5617 7.69721 27.5502 7.37884C28.7838 6.3202 29.8485 5.00954 30.6944 3.50828C29.5421 4.11058 28.3209 4.50754 27.0706 4.68627C28.3876 3.75306 29.3741 2.28473 29.8465 0.554188C28.6091 1.42319 27.2548 2.03322 25.8428 2.35757C24.8935 1.15916 23.6374 0.365249 22.269 0.0988121C20.9006 -0.167625 19.4962 0.108282 18.2734 0.883794C17.0507 1.65931 16.0778 2.89114 15.5054 4.3885C14.933 5.88585 14.7931 7.56516 15.1074 9.1663C12.6034 9.01746 10.1538 8.24634 7.91733 6.90296C5.68091 5.55958 3.70767 3.67393 2.12559 1.36832C1.32243 3.01271 1.07732 4.9578 1.44004 6.80863C1.80276 8.65947 2.74611 10.2773 4.07852 11.3335C3.08007 11.2933 2.10357 10.9755 1.22778 10.4057V10.508C1.2295 12.2306 1.73291 13.8997 2.65291 15.2331C3.57291 16.5665 4.85308 17.4825 6.27701 17.8262C5.73653 18.0027 5.17821 18.0907 4.6176 18.0877C4.22237 18.0891 3.82794 18.0457 3.4397 17.9581C3.84215 19.4409 4.62579 20.7374 5.68086 21.666C6.73594 22.5945 8.00959 23.1086 9.32344 23.1362C7.09148 25.2143 4.33444 26.3414 1.49635 26.3359C0.996266 26.3384 0.496527 26.3043 0 26.2336C2.88051 28.4105 6.22579 29.5664 9.64189 29.5652Z" fill="#8B3DBB"/>
</svg>
